<mxfile host="app.diagrams.net" modified="2023-12-11T18:51:50.608Z" agent="Mozilla/5.0 (Windows NT 10.0; Win64; x64) AppleWebKit/537.36 (KHTML, like Gecko) Chrome/119.0.0.0 Safari/537.36" etag="aj0HO41aChTERMES_P-Q" version="22.1.7" type="github">
  <diagram name="Page-1" id="64c3da0e-402f-94eb-ee01-a36477274f13">
    <mxGraphModel dx="1477" dy="2306" grid="0" gridSize="10" guides="1" tooltips="1" connect="1" arrows="1" fold="1" page="1" pageScale="1" pageWidth="1169" pageHeight="826" background="none" math="0" shadow="0">
      <root>
        <mxCell id="0" />
        <mxCell id="1" parent="0" />
        <mxCell id="2" value="Dokumentation" style="whiteSpace=wrap;rounded=1;shadow=1;fillColor=#10739E;strokeColor=none;fontColor=#FFFFFF;fontStyle=1;fontSize=20;" parent="1" vertex="1">
          <mxGeometry x="490" y="-780" width="160" height="40" as="geometry" />
        </mxCell>
        <mxCell id="4" value="Einrichten" style="whiteSpace=wrap;rounded=1;fillColor=#F2931E;strokeColor=none;shadow=1;fontColor=#FFFFFF;fontStyle=1;fontSize=14" parent="1" vertex="1">
          <mxGeometry x="240" y="-698.0000000000002" width="140" height="60" as="geometry" />
        </mxCell>
        <mxCell id="5" value="Coden" style="whiteSpace=wrap;rounded=1;fillColor=#F2931E;strokeColor=none;shadow=1;fontColor=#FFFFFF;fontStyle=1;fontSize=14" parent="1" vertex="1">
          <mxGeometry x="1686" y="-698.0000000000002" width="140" height="60" as="geometry" />
        </mxCell>
        <mxCell id="6" value="Pflichtenheft" style="whiteSpace=wrap;rounded=1;fillColor=#F2931E;strokeColor=none;shadow=1;fontColor=#FFFFFF;fontStyle=1;fontSize=14" parent="1" vertex="1">
          <mxGeometry x="430" y="-698.0000000000002" width="140" height="60" as="geometry" />
        </mxCell>
        <mxCell id="7" value="Projektplan" style="whiteSpace=wrap;rounded=1;fillColor=#F2931E;strokeColor=none;shadow=1;fontColor=#FFFFFF;fontStyle=1;fontSize=14" parent="1" vertex="1">
          <mxGeometry x="710" y="-698.0000000000002" width="140" height="60" as="geometry" />
        </mxCell>
        <mxCell id="45" value="QT" style="whiteSpace=wrap;rounded=1;fillColor=#999999;strokeColor=none;shadow=1;fontColor=#FFFFFF;fontStyle=0" parent="1" vertex="1">
          <mxGeometry x="249.99999999999977" y="-597.9999999999999" width="120" height="60" as="geometry" />
        </mxCell>
        <mxCell id="46" value="GIT&#xa;(Workflow erstellen &amp; testen)" style="whiteSpace=wrap;rounded=1;fillColor=#999999;strokeColor=none;shadow=1;fontColor=#FFFFFF;fontStyle=0" parent="1" vertex="1">
          <mxGeometry x="249.9999999999999" y="-514.9999999999999" width="120" height="60" as="geometry" />
        </mxCell>
        <mxCell id="47" value="OneDrive" style="whiteSpace=wrap;rounded=1;fillColor=#999999;strokeColor=none;shadow=1;fontColor=#FFFFFF;fontStyle=0" parent="1" vertex="1">
          <mxGeometry x="249.99999999999977" y="-437.9999999999999" width="120" height="60" as="geometry" />
        </mxCell>
        <mxCell id="118" value="" style="edgeStyle=elbowEdgeStyle;elbow=horizontal;rounded=0;fontColor=#000000;endArrow=none;endFill=0;strokeWidth=8;strokeColor=#23445D;exitX=0;exitY=0.5;exitDx=0;exitDy=0;" parent="1" source="4" target="45" edge="1">
          <mxGeometry width="100" height="100" relative="1" as="geometry">
            <mxPoint x="249.99999999999977" y="-538" as="sourcePoint" />
            <mxPoint x="239.99999999999955" y="-438" as="targetPoint" />
            <Array as="points">
              <mxPoint x="230" y="-488" />
            </Array>
          </mxGeometry>
        </mxCell>
        <mxCell id="119" value="" style="edgeStyle=elbowEdgeStyle;elbow=horizontal;rounded=0;fontColor=#000000;endArrow=none;endFill=0;strokeWidth=8;strokeColor=#23445D;exitX=0;exitY=0.5;exitDx=0;exitDy=0;" parent="1" source="4" target="46" edge="1">
          <mxGeometry width="100" height="100" relative="1" as="geometry">
            <mxPoint x="250" y="-548" as="sourcePoint" />
            <mxPoint x="239.99999999999977" y="-358" as="targetPoint" />
            <Array as="points">
              <mxPoint x="230" y="-448" />
            </Array>
          </mxGeometry>
        </mxCell>
        <mxCell id="122" value="" style="edgeStyle=elbowEdgeStyle;elbow=horizontal;rounded=0;fontColor=#000000;endArrow=none;endFill=0;strokeWidth=8;strokeColor=#23445D;exitX=0;exitY=0.5;exitDx=0;exitDy=0;" parent="1" source="4" target="47" edge="1">
          <mxGeometry width="100" height="100" relative="1" as="geometry">
            <mxPoint x="249.99999999999977" y="-538" as="sourcePoint" />
            <mxPoint x="239.99999999999977" y="-278" as="targetPoint" />
            <Array as="points">
              <mxPoint x="230" y="-398" />
            </Array>
          </mxGeometry>
        </mxCell>
        <mxCell id="135" value="Projektbeschreibung" style="whiteSpace=wrap;rounded=1;fillColor=#999999;strokeColor=none;shadow=1;fontColor=#FFFFFF;fontStyle=0" parent="1" vertex="1">
          <mxGeometry x="429.9999999999998" y="-597.9999999999999" width="120" height="60" as="geometry" />
        </mxCell>
        <mxCell id="136" value="Schnittstellen" style="whiteSpace=wrap;rounded=1;fillColor=#999999;strokeColor=none;shadow=1;fontColor=#FFFFFF;fontStyle=0" parent="1" vertex="1">
          <mxGeometry x="429.9999999999999" y="-507.9999999999999" width="120" height="60" as="geometry" />
        </mxCell>
        <mxCell id="137" value="Use Cases" style="whiteSpace=wrap;rounded=1;fillColor=#999999;strokeColor=none;shadow=1;fontColor=#FFFFFF;fontStyle=0" parent="1" vertex="1">
          <mxGeometry x="429.9999999999998" y="-427.9999999999999" width="120" height="60" as="geometry" />
        </mxCell>
        <mxCell id="145" value="" style="edgeStyle=elbowEdgeStyle;elbow=horizontal;rounded=0;fontColor=#000000;endArrow=none;endFill=0;strokeWidth=8;strokeColor=#23445D;exitX=0;exitY=0.5;exitDx=0;exitDy=0;entryX=0;entryY=0.5;entryDx=0;entryDy=0;" parent="1" source="6" target="135" edge="1">
          <mxGeometry width="100" height="100" relative="1" as="geometry">
            <mxPoint x="449.9999999999998" y="-538" as="sourcePoint" />
            <mxPoint x="269.99999999999955" y="-438" as="targetPoint" />
            <Array as="points">
              <mxPoint x="410" y="-618" />
            </Array>
          </mxGeometry>
        </mxCell>
        <mxCell id="146" value="" style="edgeStyle=elbowEdgeStyle;elbow=horizontal;rounded=0;fontColor=#000000;endArrow=none;endFill=0;strokeWidth=8;strokeColor=#23445D;exitX=0;exitY=0.5;exitDx=0;exitDy=0;" parent="1" source="6" edge="1">
          <mxGeometry width="100" height="100" relative="1" as="geometry">
            <mxPoint x="449.9999999999998" y="-538" as="sourcePoint" />
            <mxPoint x="430" y="-478" as="targetPoint" />
            <Array as="points">
              <mxPoint x="410" y="-588" />
            </Array>
          </mxGeometry>
        </mxCell>
        <mxCell id="155" value="Jira" style="whiteSpace=wrap;rounded=1;fillColor=#12AAB5;strokeColor=none;shadow=1;fontColor=#FFFFFF;" parent="1" vertex="1">
          <mxGeometry x="619.9999999999998" y="-597.9999999999998" width="120" height="60" as="geometry" />
        </mxCell>
        <mxCell id="156" value="Dokumentation" style="whiteSpace=wrap;rounded=1;fillColor=#12AAB5;strokeColor=none;shadow=1;fontColor=#FFFFFF;" parent="1" vertex="1">
          <mxGeometry x="819.9999999999998" y="-597.9999999999998" width="120" height="60" as="geometry" />
        </mxCell>
        <mxCell id="157" value="Sprints" style="whiteSpace=wrap;rounded=1;fillColor=#999999;strokeColor=none;shadow=1;fontColor=#FFFFFF;fontStyle=0" parent="1" vertex="1">
          <mxGeometry x="619.9999999999998" y="-507.9999999999998" width="120" height="60" as="geometry" />
        </mxCell>
        <mxCell id="158" value="Planung" style="whiteSpace=wrap;rounded=1;fillColor=#999999;strokeColor=none;shadow=1;fontColor=#FFFFFF;fontStyle=0" parent="1" vertex="1">
          <mxGeometry x="620" y="-427.9999999999998" width="120" height="60" as="geometry" />
        </mxCell>
        <mxCell id="162" value="Projektstrukturplan/Â &#xa;Arbeitspakete" style="whiteSpace=wrap;rounded=1;fillColor=#999999;strokeColor=none;shadow=1;fontColor=#FFFFFF;fontStyle=0" parent="1" vertex="1">
          <mxGeometry x="819.9999999999993" y="-507.9999999999998" width="120" height="60" as="geometry" />
        </mxCell>
        <mxCell id="163" value="Entwicklungsstrategie" style="whiteSpace=wrap;rounded=1;fillColor=#999999;strokeColor=none;shadow=1;fontColor=#FFFFFF;fontStyle=0" parent="1" vertex="1">
          <mxGeometry x="819.9999999999995" y="-427.9999999999998" width="120" height="60" as="geometry" />
        </mxCell>
        <mxCell id="164" value="Meilensteine" style="whiteSpace=wrap;rounded=1;fillColor=#999999;strokeColor=none;shadow=1;fontColor=#FFFFFF;fontStyle=0" parent="1" vertex="1">
          <mxGeometry x="819.9999999999995" y="-347.9999999999998" width="120" height="60" as="geometry" />
        </mxCell>
        <mxCell id="166" value="Klassendiagramm" style="whiteSpace=wrap;rounded=1;fillColor=#999999;strokeColor=none;shadow=1;fontColor=#FFFFFF;fontStyle=0" parent="1" vertex="1">
          <mxGeometry x="819.9999999999998" y="-267.9999999999998" width="120" height="60" as="geometry" />
        </mxCell>
        <mxCell id="167" value="" style="edgeStyle=elbowEdgeStyle;elbow=horizontal;rounded=0;fontColor=#000000;endArrow=none;endFill=0;strokeWidth=8;strokeColor=#23445D;" parent="1" source="155" target="157" edge="1">
          <mxGeometry width="100" height="100" relative="1" as="geometry">
            <mxPoint x="600" y="-567.9999999999994" as="sourcePoint" />
            <mxPoint x="609.9999999999995" y="-467.9999999999999" as="targetPoint" />
            <Array as="points">
              <mxPoint x="600" y="-517.9999999999999" />
            </Array>
          </mxGeometry>
        </mxCell>
        <mxCell id="168" value="" style="edgeStyle=elbowEdgeStyle;elbow=horizontal;rounded=0;fontColor=#000000;endArrow=none;endFill=0;strokeWidth=8;strokeColor=#23445D;" parent="1" source="155" target="158" edge="1">
          <mxGeometry width="100" height="100" relative="1" as="geometry">
            <mxPoint x="610" y="-567.9999999999999" as="sourcePoint" />
            <mxPoint x="609.9999999999998" y="-387.9999999999999" as="targetPoint" />
            <Array as="points">
              <mxPoint x="600" y="-477.9999999999999" />
            </Array>
          </mxGeometry>
        </mxCell>
        <mxCell id="171" value="" style="edgeStyle=elbowEdgeStyle;elbow=horizontal;rounded=0;fontColor=#000000;endArrow=none;endFill=0;strokeWidth=8;strokeColor=#23445D;entryX=0;entryY=0.5;entryDx=0;entryDy=0;" parent="1" source="155" target="nM1RaoNJ8ZwKY0_cx8vq-289" edge="1">
          <mxGeometry width="100" height="100" relative="1" as="geometry">
            <mxPoint x="610" y="-567.9999999999999" as="sourcePoint" />
            <mxPoint x="620" y="-319.5" as="targetPoint" />
            <Array as="points">
              <mxPoint x="600" y="-427.9999999999999" />
            </Array>
          </mxGeometry>
        </mxCell>
        <mxCell id="172" value="" style="edgeStyle=elbowEdgeStyle;elbow=horizontal;rounded=0;fontColor=#000000;endArrow=none;endFill=0;strokeWidth=8;strokeColor=#23445D;" parent="1" source="156" target="162" edge="1">
          <mxGeometry width="100" height="100" relative="1" as="geometry">
            <mxPoint x="790" y="-567.9999999999994" as="sourcePoint" />
            <mxPoint x="799.9999999999995" y="-467.9999999999999" as="targetPoint" />
            <Array as="points">
              <mxPoint x="800" y="-517.9999999999999" />
            </Array>
          </mxGeometry>
        </mxCell>
        <mxCell id="173" value="" style="edgeStyle=elbowEdgeStyle;elbow=horizontal;rounded=0;fontColor=#000000;endArrow=none;endFill=0;strokeWidth=8;strokeColor=#23445D;" parent="1" source="156" target="163" edge="1">
          <mxGeometry width="100" height="100" relative="1" as="geometry">
            <mxPoint x="800" y="-567.9999999999999" as="sourcePoint" />
            <mxPoint x="799.9999999999998" y="-387.9999999999999" as="targetPoint" />
            <Array as="points">
              <mxPoint x="800" y="-477.9999999999999" />
            </Array>
          </mxGeometry>
        </mxCell>
        <mxCell id="174" value="" style="edgeStyle=elbowEdgeStyle;elbow=horizontal;rounded=0;fontColor=#000000;endArrow=none;endFill=0;strokeWidth=8;strokeColor=#23445D;" parent="1" source="156" target="166" edge="1">
          <mxGeometry width="100" height="100" relative="1" as="geometry">
            <mxPoint x="800" y="-567.9999999999999" as="sourcePoint" />
            <mxPoint x="800" y="-147.9999999999999" as="targetPoint" />
            <Array as="points">
              <mxPoint x="800" y="-357.9999999999999" />
            </Array>
          </mxGeometry>
        </mxCell>
        <mxCell id="176" value="" style="edgeStyle=elbowEdgeStyle;elbow=horizontal;rounded=0;fontColor=#000000;endArrow=none;endFill=0;strokeWidth=8;strokeColor=#23445D;" parent="1" source="156" target="164" edge="1">
          <mxGeometry width="100" height="100" relative="1" as="geometry">
            <mxPoint x="800" y="-567.9999999999999" as="sourcePoint" />
            <mxPoint x="799.9999999999998" y="-307.9999999999999" as="targetPoint" />
            <Array as="points">
              <mxPoint x="800" y="-427.9999999999999" />
            </Array>
          </mxGeometry>
        </mxCell>
        <mxCell id="199" value="Class&#xa;Maze" style="whiteSpace=wrap;rounded=1;fillColor=#12AAB5;strokeColor=none;shadow=1;fontColor=#FFFFFF;" parent="1" vertex="1">
          <mxGeometry x="1315.9999999999998" y="-599.0000000000002" width="120" height="60" as="geometry" />
        </mxCell>
        <mxCell id="200" value="Class&#xa;Player" style="whiteSpace=wrap;rounded=1;fillColor=#12AAB5;strokeColor=none;shadow=1;fontColor=#FFFFFF;" parent="1" vertex="1">
          <mxGeometry x="1516" y="-599.0000000000002" width="120" height="60" as="geometry" />
        </mxCell>
        <mxCell id="201" value="Sprite (Grafik)" style="whiteSpace=wrap;rounded=1;fillColor=#999999;strokeColor=none;shadow=1;fontColor=#FFFFFF;fontStyle=0" parent="1" vertex="1">
          <mxGeometry x="1315.9999999999998" y="-509.0000000000003" width="120" height="60" as="geometry" />
        </mxCell>
        <mxCell id="202" value="Richtung &amp; Punkte" style="whiteSpace=wrap;rounded=1;fillColor=#999999;strokeColor=none;shadow=1;fontColor=#FFFFFF;fontStyle=0" parent="1" vertex="1">
          <mxGeometry x="1316" y="-429.0000000000003" width="120" height="60" as="geometry" />
        </mxCell>
        <mxCell id="203" value="Score" style="whiteSpace=wrap;rounded=1;fillColor=#999999;strokeColor=none;shadow=1;fontColor=#FFFFFF;fontStyle=0" parent="1" vertex="1">
          <mxGeometry x="1315.9999999999998" y="-349.00000000000034" width="120" height="60" as="geometry" />
        </mxCell>
        <mxCell id="206" value="Sprite (Grafik)" style="whiteSpace=wrap;rounded=1;fillColor=#999999;strokeColor=none;shadow=1;fontColor=#FFFFFF;fontStyle=0" parent="1" vertex="1">
          <mxGeometry x="1515.999999999999" y="-509.0000000000003" width="120" height="60" as="geometry" />
        </mxCell>
        <mxCell id="207" value="Bewegung &amp; entsprechendes Sprite" style="whiteSpace=wrap;rounded=1;fillColor=#999999;strokeColor=none;shadow=1;fontColor=#FFFFFF;fontStyle=0" parent="1" vertex="1">
          <mxGeometry x="1515.9999999999995" y="-429.0000000000003" width="120" height="60" as="geometry" />
        </mxCell>
        <mxCell id="208" value="Punkte&#xa;iteration" style="whiteSpace=wrap;rounded=1;fillColor=#999999;strokeColor=none;shadow=1;fontColor=#FFFFFF;fontStyle=0" parent="1" vertex="1">
          <mxGeometry x="1515.9999999999995" y="-349.00000000000034" width="120" height="60" as="geometry" />
        </mxCell>
        <mxCell id="211" value="" style="edgeStyle=elbowEdgeStyle;elbow=horizontal;rounded=0;fontColor=#000000;endArrow=none;endFill=0;strokeWidth=8;strokeColor=#23445D;" parent="1" source="199" target="201" edge="1">
          <mxGeometry width="100" height="100" relative="1" as="geometry">
            <mxPoint x="1296" y="-544" as="sourcePoint" />
            <mxPoint x="1305.9999999999995" y="-444.0000000000004" as="targetPoint" />
            <Array as="points">
              <mxPoint x="1296" y="-494.0000000000004" />
            </Array>
          </mxGeometry>
        </mxCell>
        <mxCell id="212" value="" style="edgeStyle=elbowEdgeStyle;elbow=horizontal;rounded=0;fontColor=#000000;endArrow=none;endFill=0;strokeWidth=8;strokeColor=#23445D;" parent="1" source="199" target="202" edge="1">
          <mxGeometry width="100" height="100" relative="1" as="geometry">
            <mxPoint x="1306" y="-544.0000000000005" as="sourcePoint" />
            <mxPoint x="1305.9999999999998" y="-364.0000000000004" as="targetPoint" />
            <Array as="points">
              <mxPoint x="1296" y="-454.0000000000004" />
            </Array>
          </mxGeometry>
        </mxCell>
        <mxCell id="215" value="" style="edgeStyle=elbowEdgeStyle;elbow=horizontal;rounded=0;fontColor=#000000;endArrow=none;endFill=0;strokeWidth=8;strokeColor=#23445D;" parent="1" source="199" target="203" edge="1">
          <mxGeometry width="100" height="100" relative="1" as="geometry">
            <mxPoint x="1306" y="-544.0000000000005" as="sourcePoint" />
            <mxPoint x="1305.9999999999998" y="-284.00000000000045" as="targetPoint" />
            <Array as="points">
              <mxPoint x="1296" y="-404.0000000000004" />
            </Array>
          </mxGeometry>
        </mxCell>
        <mxCell id="216" value="" style="edgeStyle=elbowEdgeStyle;elbow=horizontal;rounded=0;fontColor=#000000;endArrow=none;endFill=0;strokeWidth=8;strokeColor=#23445D;" parent="1" source="200" target="206" edge="1">
          <mxGeometry width="100" height="100" relative="1" as="geometry">
            <mxPoint x="1486" y="-544" as="sourcePoint" />
            <mxPoint x="1495.9999999999995" y="-444.0000000000004" as="targetPoint" />
            <Array as="points">
              <mxPoint x="1496" y="-494.0000000000004" />
            </Array>
          </mxGeometry>
        </mxCell>
        <mxCell id="217" value="" style="edgeStyle=elbowEdgeStyle;elbow=horizontal;rounded=0;fontColor=#000000;endArrow=none;endFill=0;strokeWidth=8;strokeColor=#23445D;" parent="1" source="200" target="207" edge="1">
          <mxGeometry width="100" height="100" relative="1" as="geometry">
            <mxPoint x="1496" y="-544.0000000000005" as="sourcePoint" />
            <mxPoint x="1496" y="-364.0000000000004" as="targetPoint" />
            <Array as="points">
              <mxPoint x="1496" y="-454.0000000000004" />
            </Array>
          </mxGeometry>
        </mxCell>
        <mxCell id="220" value="" style="edgeStyle=elbowEdgeStyle;elbow=horizontal;rounded=0;fontColor=#000000;endArrow=none;endFill=0;strokeWidth=8;strokeColor=#23445D;" parent="1" source="200" target="208" edge="1">
          <mxGeometry width="100" height="100" relative="1" as="geometry">
            <mxPoint x="1496" y="-544.0000000000005" as="sourcePoint" />
            <mxPoint x="1496" y="-284.00000000000045" as="targetPoint" />
            <Array as="points">
              <mxPoint x="1496" y="-404.0000000000004" />
            </Array>
          </mxGeometry>
        </mxCell>
        <mxCell id="223" value="" style="edgeStyle=elbowEdgeStyle;elbow=vertical;rounded=0;fontColor=#000000;endArrow=none;endFill=0;strokeWidth=8;strokeColor=#23445D;" parent="1" source="7" target="155" edge="1">
          <mxGeometry width="100" height="100" relative="1" as="geometry">
            <mxPoint x="780" y="-568" as="sourcePoint" />
            <mxPoint x="680" y="-678" as="targetPoint" />
          </mxGeometry>
        </mxCell>
        <mxCell id="224" value="" style="edgeStyle=elbowEdgeStyle;elbow=vertical;rounded=0;fontColor=#000000;endArrow=none;endFill=0;strokeWidth=8;strokeColor=#23445D;" parent="1" source="7" target="156" edge="1">
          <mxGeometry width="100" height="100" relative="1" as="geometry">
            <mxPoint x="870" y="-578" as="sourcePoint" />
            <mxPoint x="970" y="-678" as="targetPoint" />
          </mxGeometry>
        </mxCell>
        <mxCell id="227" value="" style="edgeStyle=elbowEdgeStyle;elbow=vertical;rounded=0;fontColor=#000000;endArrow=none;endFill=0;strokeWidth=8;strokeColor=#23445D;" parent="1" source="5" target="199" edge="1">
          <mxGeometry width="100" height="100" relative="1" as="geometry">
            <mxPoint x="1296" y="-584" as="sourcePoint" />
            <mxPoint x="1396" y="-684" as="targetPoint" />
            <Array as="points" />
          </mxGeometry>
        </mxCell>
        <mxCell id="228" value="" style="edgeStyle=elbowEdgeStyle;elbow=vertical;rounded=0;fontColor=#000000;endArrow=none;endFill=0;strokeWidth=8;strokeColor=#23445D;" parent="1" source="5" target="200" edge="1">
          <mxGeometry width="100" height="100" relative="1" as="geometry">
            <mxPoint x="1556" y="-584" as="sourcePoint" />
            <mxPoint x="1656" y="-684" as="targetPoint" />
          </mxGeometry>
        </mxCell>
        <mxCell id="nM1RaoNJ8ZwKY0_cx8vq-235" value="Pac-Man" style="whiteSpace=wrap;rounded=1;shadow=1;fillColor=#10739E;strokeColor=none;fontColor=#FFFFFF;fontStyle=1;fontSize=24" parent="1" vertex="1">
          <mxGeometry x="987" y="-828" width="340" height="60" as="geometry" />
        </mxCell>
        <mxCell id="nM1RaoNJ8ZwKY0_cx8vq-236" value="Software" style="whiteSpace=wrap;rounded=1;shadow=1;fillColor=#10739E;strokeColor=none;fontColor=#FFFFFF;fontStyle=1;fontSize=20;" parent="1" vertex="1">
          <mxGeometry x="1676" y="-756" width="160" height="40" as="geometry" />
        </mxCell>
        <mxCell id="nM1RaoNJ8ZwKY0_cx8vq-249" value="Class&#xa;Ghost" style="whiteSpace=wrap;rounded=1;fillColor=#12AAB5;strokeColor=none;shadow=1;fontColor=#FFFFFF;" parent="1" vertex="1">
          <mxGeometry x="1696" y="-599.0000000000002" width="120" height="60" as="geometry" />
        </mxCell>
        <mxCell id="nM1RaoNJ8ZwKY0_cx8vq-250" value="Sprite (Grafik)" style="whiteSpace=wrap;rounded=1;fillColor=#999999;strokeColor=none;shadow=1;fontColor=#FFFFFF;fontStyle=0" parent="1" vertex="1">
          <mxGeometry x="1696" y="-509" width="120" height="60" as="geometry" />
        </mxCell>
        <mxCell id="nM1RaoNJ8ZwKY0_cx8vq-251" value="Bewegung &amp; entsprechendes Sprite" style="whiteSpace=wrap;rounded=1;fillColor=#999999;strokeColor=none;shadow=1;fontColor=#FFFFFF;fontStyle=0" parent="1" vertex="1">
          <mxGeometry x="1695.9999999999995" y="-429.0000000000003" width="120" height="60" as="geometry" />
        </mxCell>
        <mxCell id="nM1RaoNJ8ZwKY0_cx8vq-252" value="Inky" style="whiteSpace=wrap;rounded=1;fillColor=#999999;strokeColor=none;shadow=1;fontColor=#FFFFFF;fontStyle=0" parent="1" vertex="1">
          <mxGeometry x="1695.9999999999995" y="-349.00000000000034" width="120" height="60" as="geometry" />
        </mxCell>
        <mxCell id="nM1RaoNJ8ZwKY0_cx8vq-253" value="Clyde" style="whiteSpace=wrap;rounded=1;fillColor=#999999;strokeColor=none;shadow=1;fontColor=#FFFFFF;fontStyle=0" parent="1" vertex="1">
          <mxGeometry x="1695.9999999999995" y="-269.00000000000034" width="120" height="60" as="geometry" />
        </mxCell>
        <mxCell id="nM1RaoNJ8ZwKY0_cx8vq-254" value="Pinky" style="whiteSpace=wrap;rounded=1;fillColor=#999999;strokeColor=none;shadow=1;fontColor=#FFFFFF;fontStyle=0" parent="1" vertex="1">
          <mxGeometry x="1696" y="-189.00000000000034" width="120" height="60" as="geometry" />
        </mxCell>
        <mxCell id="nM1RaoNJ8ZwKY0_cx8vq-255" value="" style="edgeStyle=elbowEdgeStyle;elbow=horizontal;rounded=0;fontColor=#000000;endArrow=none;endFill=0;strokeWidth=8;strokeColor=#23445D;" parent="1" source="nM1RaoNJ8ZwKY0_cx8vq-249" target="nM1RaoNJ8ZwKY0_cx8vq-250" edge="1">
          <mxGeometry width="100" height="100" relative="1" as="geometry">
            <mxPoint x="1666" y="-544" as="sourcePoint" />
            <mxPoint x="1675.9999999999995" y="-444.0000000000004" as="targetPoint" />
            <Array as="points">
              <mxPoint x="1676" y="-494.0000000000004" />
            </Array>
          </mxGeometry>
        </mxCell>
        <mxCell id="nM1RaoNJ8ZwKY0_cx8vq-256" value="" style="edgeStyle=elbowEdgeStyle;elbow=horizontal;rounded=0;fontColor=#000000;endArrow=none;endFill=0;strokeWidth=8;strokeColor=#23445D;" parent="1" source="nM1RaoNJ8ZwKY0_cx8vq-249" target="nM1RaoNJ8ZwKY0_cx8vq-251" edge="1">
          <mxGeometry width="100" height="100" relative="1" as="geometry">
            <mxPoint x="1676" y="-544.0000000000005" as="sourcePoint" />
            <mxPoint x="1676" y="-364.0000000000004" as="targetPoint" />
            <Array as="points">
              <mxPoint x="1676" y="-454.0000000000004" />
            </Array>
          </mxGeometry>
        </mxCell>
        <mxCell id="nM1RaoNJ8ZwKY0_cx8vq-257" value="" style="edgeStyle=elbowEdgeStyle;elbow=horizontal;rounded=0;fontColor=#000000;endArrow=none;endFill=0;strokeWidth=8;strokeColor=#23445D;" parent="1" source="nM1RaoNJ8ZwKY0_cx8vq-249" target="nM1RaoNJ8ZwKY0_cx8vq-254" edge="1">
          <mxGeometry width="100" height="100" relative="1" as="geometry">
            <mxPoint x="1676" y="-544.0000000000005" as="sourcePoint" />
            <mxPoint x="1676" y="-124.00000000000045" as="targetPoint" />
            <Array as="points">
              <mxPoint x="1676" y="-334.00000000000045" />
            </Array>
          </mxGeometry>
        </mxCell>
        <mxCell id="nM1RaoNJ8ZwKY0_cx8vq-258" value="" style="edgeStyle=elbowEdgeStyle;elbow=horizontal;rounded=0;fontColor=#000000;endArrow=none;endFill=0;strokeWidth=8;strokeColor=#23445D;" parent="1" source="nM1RaoNJ8ZwKY0_cx8vq-249" target="nM1RaoNJ8ZwKY0_cx8vq-253" edge="1">
          <mxGeometry width="100" height="100" relative="1" as="geometry">
            <mxPoint x="1676" y="-544.0000000000005" as="sourcePoint" />
            <mxPoint x="1676" y="-204.00000000000045" as="targetPoint" />
            <Array as="points">
              <mxPoint x="1676" y="-374.0000000000004" />
            </Array>
          </mxGeometry>
        </mxCell>
        <mxCell id="nM1RaoNJ8ZwKY0_cx8vq-259" value="" style="edgeStyle=elbowEdgeStyle;elbow=horizontal;rounded=0;fontColor=#000000;endArrow=none;endFill=0;strokeWidth=8;strokeColor=#23445D;" parent="1" source="nM1RaoNJ8ZwKY0_cx8vq-249" target="nM1RaoNJ8ZwKY0_cx8vq-252" edge="1">
          <mxGeometry width="100" height="100" relative="1" as="geometry">
            <mxPoint x="1676" y="-544.0000000000005" as="sourcePoint" />
            <mxPoint x="1676" y="-284.00000000000045" as="targetPoint" />
            <Array as="points">
              <mxPoint x="1676" y="-404.0000000000004" />
            </Array>
          </mxGeometry>
        </mxCell>
        <mxCell id="nM1RaoNJ8ZwKY0_cx8vq-260" value="Class&#xa;PacMan" style="whiteSpace=wrap;rounded=1;fillColor=#12AAB5;strokeColor=none;shadow=1;fontColor=#FFFFFF;" parent="1" vertex="1">
          <mxGeometry x="1874" y="-599" width="120" height="60" as="geometry" />
        </mxCell>
        <mxCell id="nM1RaoNJ8ZwKY0_cx8vq-262" value="Input handling" style="whiteSpace=wrap;rounded=1;fillColor=#999999;strokeColor=none;shadow=1;fontColor=#FFFFFF;fontStyle=0" parent="1" vertex="1">
          <mxGeometry x="1875.9999999999995" y="-429.0000000000003" width="120" height="60" as="geometry" />
        </mxCell>
        <mxCell id="nM1RaoNJ8ZwKY0_cx8vq-263" value="Gameover &amp; Start Window" style="whiteSpace=wrap;rounded=1;fillColor=#999999;strokeColor=none;shadow=1;fontColor=#FFFFFF;fontStyle=0" parent="1" vertex="1">
          <mxGeometry x="1873.9999999999995" y="-515.0000000000003" width="120" height="60" as="geometry" />
        </mxCell>
        <mxCell id="nM1RaoNJ8ZwKY0_cx8vq-267" value="" style="edgeStyle=elbowEdgeStyle;elbow=horizontal;rounded=0;fontColor=#000000;endArrow=none;endFill=0;strokeWidth=8;strokeColor=#23445D;" parent="1" source="nM1RaoNJ8ZwKY0_cx8vq-260" target="nM1RaoNJ8ZwKY0_cx8vq-262" edge="1">
          <mxGeometry width="100" height="100" relative="1" as="geometry">
            <mxPoint x="1856" y="-544.0000000000005" as="sourcePoint" />
            <mxPoint x="1856" y="-364.0000000000004" as="targetPoint" />
            <Array as="points">
              <mxPoint x="1856" y="-454.0000000000004" />
            </Array>
          </mxGeometry>
        </mxCell>
        <mxCell id="nM1RaoNJ8ZwKY0_cx8vq-270" value="" style="edgeStyle=elbowEdgeStyle;elbow=horizontal;rounded=0;fontColor=#000000;endArrow=none;endFill=0;strokeWidth=8;strokeColor=#23445D;" parent="1" source="nM1RaoNJ8ZwKY0_cx8vq-260" target="nM1RaoNJ8ZwKY0_cx8vq-263" edge="1">
          <mxGeometry width="100" height="100" relative="1" as="geometry">
            <mxPoint x="1856" y="-544.0000000000005" as="sourcePoint" />
            <mxPoint x="1856" y="-284.00000000000045" as="targetPoint" />
            <Array as="points">
              <mxPoint x="1856" y="-404.0000000000004" />
            </Array>
          </mxGeometry>
        </mxCell>
        <mxCell id="nM1RaoNJ8ZwKY0_cx8vq-272" value="" style="edgeStyle=elbowEdgeStyle;elbow=vertical;rounded=0;fontColor=#000000;endArrow=none;endFill=0;strokeWidth=8;strokeColor=#23445D;entryX=0.5;entryY=0;entryDx=0;entryDy=0;exitX=0.5;exitY=1;exitDx=0;exitDy=0;" parent="1" source="5" target="nM1RaoNJ8ZwKY0_cx8vq-249" edge="1">
          <mxGeometry width="100" height="100" relative="1" as="geometry">
            <mxPoint x="1976" y="-769.0000000000002" as="sourcePoint" />
            <mxPoint x="2086" y="-699.0000000000002" as="targetPoint" />
            <Array as="points" />
          </mxGeometry>
        </mxCell>
        <mxCell id="nM1RaoNJ8ZwKY0_cx8vq-274" value="" style="edgeStyle=elbowEdgeStyle;elbow=vertical;rounded=0;fontColor=#000000;endArrow=none;endFill=0;strokeWidth=8;strokeColor=#23445D;entryX=0.5;entryY=0;entryDx=0;entryDy=0;exitX=0.5;exitY=1;exitDx=0;exitDy=0;" parent="1" source="5" target="nM1RaoNJ8ZwKY0_cx8vq-260" edge="1">
          <mxGeometry width="100" height="100" relative="1" as="geometry">
            <mxPoint x="1676" y="-629" as="sourcePoint" />
            <mxPoint x="1766" y="-589" as="targetPoint" />
            <Array as="points" />
          </mxGeometry>
        </mxCell>
        <mxCell id="nM1RaoNJ8ZwKY0_cx8vq-275" value="&lt;span style=&quot;color: rgb(255, 255, 255); font-family: Helvetica; font-size: 12px; font-style: normal; font-variant-ligatures: normal; font-variant-caps: normal; font-weight: 400; letter-spacing: normal; orphans: 2; text-align: center; text-indent: 0px; text-transform: none; widows: 2; word-spacing: 0px; -webkit-text-stroke-width: 0px; background-color: rgb(251, 251, 251); text-decoration-thickness: initial; text-decoration-style: initial; text-decoration-color: initial; float: none; display: inline !important;&quot;&gt;Sprite (Grafik)&lt;/span&gt;" style="text;whiteSpace=wrap;html=1;" parent="1" vertex="1">
          <mxGeometry x="1874" y="-68" width="110" height="40" as="geometry" />
        </mxCell>
        <mxCell id="nM1RaoNJ8ZwKY0_cx8vq-277" value="Blinky" style="whiteSpace=wrap;rounded=1;fillColor=#999999;strokeColor=none;shadow=1;fontColor=#FFFFFF;fontStyle=0" parent="1" vertex="1">
          <mxGeometry x="1536" y="-269.00000000000034" width="120" height="60" as="geometry" />
        </mxCell>
        <mxCell id="nM1RaoNJ8ZwKY0_cx8vq-278" value="" style="edgeStyle=elbowEdgeStyle;elbow=horizontal;rounded=0;fontColor=#000000;endArrow=none;endFill=0;strokeWidth=8;strokeColor=#23445D;entryX=1;entryY=0.5;entryDx=0;entryDy=0;exitX=0;exitY=0.5;exitDx=0;exitDy=0;" parent="1" source="nM1RaoNJ8ZwKY0_cx8vq-249" target="nM1RaoNJ8ZwKY0_cx8vq-277" edge="1">
          <mxGeometry width="100" height="100" relative="1" as="geometry">
            <mxPoint x="1706" y="-559" as="sourcePoint" />
            <mxPoint x="1706" y="-149" as="targetPoint" />
            <Array as="points">
              <mxPoint x="1676" y="-399" />
              <mxPoint x="1676" y="-319" />
            </Array>
          </mxGeometry>
        </mxCell>
        <mxCell id="nM1RaoNJ8ZwKY0_cx8vq-280" value="Reset" style="whiteSpace=wrap;rounded=1;fillColor=#999999;strokeColor=none;shadow=1;fontColor=#FFFFFF;fontStyle=0" parent="1" vertex="1">
          <mxGeometry x="1535.9999999999995" y="-189.00000000000034" width="120" height="60" as="geometry" />
        </mxCell>
        <mxCell id="nM1RaoNJ8ZwKY0_cx8vq-281" value="" style="edgeStyle=elbowEdgeStyle;elbow=horizontal;rounded=0;fontColor=#000000;endArrow=none;endFill=0;strokeWidth=8;strokeColor=#23445D;entryX=1;entryY=0.5;entryDx=0;entryDy=0;exitX=0;exitY=0.5;exitDx=0;exitDy=0;" parent="1" source="nM1RaoNJ8ZwKY0_cx8vq-249" target="nM1RaoNJ8ZwKY0_cx8vq-280" edge="1">
          <mxGeometry width="100" height="100" relative="1" as="geometry">
            <mxPoint x="1706" y="-559" as="sourcePoint" />
            <mxPoint x="1646" y="-229" as="targetPoint" />
            <Array as="points">
              <mxPoint x="1676" y="-369" />
              <mxPoint x="1686" y="-309" />
            </Array>
          </mxGeometry>
        </mxCell>
        <mxCell id="nM1RaoNJ8ZwKY0_cx8vq-283" value="" style="edgeStyle=elbowEdgeStyle;elbow=vertical;rounded=0;fontColor=#000000;endArrow=none;endFill=0;strokeWidth=8;strokeColor=#23445D;entryX=0.5;entryY=1;entryDx=0;entryDy=0;exitX=0.5;exitY=0;exitDx=0;exitDy=0;" parent="1" source="5" target="nM1RaoNJ8ZwKY0_cx8vq-236" edge="1">
          <mxGeometry width="100" height="100" relative="1" as="geometry">
            <mxPoint x="1672" y="-691" as="sourcePoint" />
            <mxPoint x="782" y="-589" as="targetPoint" />
          </mxGeometry>
        </mxCell>
        <mxCell id="nM1RaoNJ8ZwKY0_cx8vq-284" value="" style="edgeStyle=elbowEdgeStyle;elbow=vertical;rounded=0;fontColor=#000000;endArrow=none;endFill=0;strokeWidth=8;strokeColor=#23445D;exitX=0.5;exitY=1;exitDx=0;exitDy=0;entryX=0.5;entryY=0;entryDx=0;entryDy=0;" parent="1" source="2" target="7" edge="1">
          <mxGeometry width="100" height="100" relative="1" as="geometry">
            <mxPoint x="800" y="-618" as="sourcePoint" />
            <mxPoint x="900" y="-578" as="targetPoint" />
          </mxGeometry>
        </mxCell>
        <mxCell id="nM1RaoNJ8ZwKY0_cx8vq-285" value="" style="edgeStyle=elbowEdgeStyle;elbow=vertical;rounded=0;fontColor=#000000;endArrow=none;endFill=0;strokeWidth=8;strokeColor=#23445D;entryX=0.5;entryY=1;entryDx=0;entryDy=0;exitX=0.5;exitY=0;exitDx=0;exitDy=0;" parent="1" source="4" target="2" edge="1">
          <mxGeometry width="100" height="100" relative="1" as="geometry">
            <mxPoint x="810" y="-608" as="sourcePoint" />
            <mxPoint x="910" y="-568" as="targetPoint" />
          </mxGeometry>
        </mxCell>
        <mxCell id="nM1RaoNJ8ZwKY0_cx8vq-286" value="" style="edgeStyle=elbowEdgeStyle;elbow=vertical;rounded=0;fontColor=#000000;endArrow=none;endFill=0;strokeWidth=8;strokeColor=#23445D;exitX=0.5;exitY=0;exitDx=0;exitDy=0;entryX=0.5;entryY=1;entryDx=0;entryDy=0;" parent="1" source="6" target="2" edge="1">
          <mxGeometry width="100" height="100" relative="1" as="geometry">
            <mxPoint x="820" y="-598" as="sourcePoint" />
            <mxPoint x="920" y="-558" as="targetPoint" />
          </mxGeometry>
        </mxCell>
        <mxCell id="nM1RaoNJ8ZwKY0_cx8vq-287" value="" style="edgeStyle=elbowEdgeStyle;elbow=horizontal;rounded=0;fontColor=#000000;endArrow=none;endFill=0;strokeWidth=8;strokeColor=#23445D;entryX=0;entryY=0.5;entryDx=0;entryDy=0;" parent="1" source="6" target="137" edge="1">
          <mxGeometry width="100" height="100" relative="1" as="geometry">
            <mxPoint x="426" y="-679" as="sourcePoint" />
            <mxPoint x="440" y="-468" as="targetPoint" />
            <Array as="points">
              <mxPoint x="410" y="-546" />
            </Array>
          </mxGeometry>
        </mxCell>
        <mxCell id="nM1RaoNJ8ZwKY0_cx8vq-289" value="Verwaltung" style="whiteSpace=wrap;rounded=1;fillColor=#999999;strokeColor=none;shadow=1;fontColor=#FFFFFF;fontStyle=0" parent="1" vertex="1">
          <mxGeometry x="619.9999999999995" y="-347.9999999999998" width="120" height="60" as="geometry" />
        </mxCell>
        <mxCell id="eraaEJyQAx2tB4tVf1Ti-235" value="Test Application&lt;br&gt;erstellen" style="whiteSpace=wrap;rounded=1;fillColor=#999999;strokeColor=none;shadow=1;fontColor=#FFFFFF;fontStyle=0;html=1;" parent="1" vertex="1">
          <mxGeometry x="2051.999999999999" y="-509.0000000000002" width="120" height="60" as="geometry" />
        </mxCell>
        <mxCell id="eraaEJyQAx2tB4tVf1Ti-236" value="Unit Tests&#xa;erstellen" style="whiteSpace=wrap;rounded=1;fillColor=#999999;strokeColor=none;shadow=1;fontColor=#FFFFFF;fontStyle=0" parent="1" vertex="1">
          <mxGeometry x="2055.9999999999995" y="-429.0000000000003" width="120" height="60" as="geometry" />
        </mxCell>
        <mxCell id="eraaEJyQAx2tB4tVf1Ti-237" value="Bug fixes" style="whiteSpace=wrap;rounded=1;fillColor=#999999;strokeColor=none;shadow=1;fontColor=#FFFFFF;fontStyle=0" parent="1" vertex="1">
          <mxGeometry x="2055.9999999999995" y="-349.00000000000034" width="120" height="60" as="geometry" />
        </mxCell>
        <mxCell id="eraaEJyQAx2tB4tVf1Ti-238" value="" style="edgeStyle=elbowEdgeStyle;elbow=horizontal;rounded=0;fontColor=#000000;endArrow=none;endFill=0;strokeWidth=8;strokeColor=#23445D;entryX=0;entryY=0.5;entryDx=0;entryDy=0;exitX=0;exitY=0.5;exitDx=0;exitDy=0;" parent="1" source="eraaEJyQAx2tB4tVf1Ti-241" target="eraaEJyQAx2tB4tVf1Ti-235" edge="1">
          <mxGeometry width="100" height="100" relative="1" as="geometry">
            <mxPoint x="2233" y="-560" as="sourcePoint" />
            <mxPoint x="2236.999999999999" y="-485.00000000000045" as="targetPoint" />
            <Array as="points">
              <mxPoint x="2032" y="-520" />
            </Array>
          </mxGeometry>
        </mxCell>
        <mxCell id="eraaEJyQAx2tB4tVf1Ti-239" value="" style="edgeStyle=elbowEdgeStyle;elbow=horizontal;rounded=0;fontColor=#000000;endArrow=none;endFill=0;strokeWidth=8;strokeColor=#23445D;entryX=0;entryY=0.5;entryDx=0;entryDy=0;exitX=0;exitY=0.5;exitDx=0;exitDy=0;" parent="1" source="eraaEJyQAx2tB4tVf1Ti-241" target="eraaEJyQAx2tB4tVf1Ti-236" edge="1">
          <mxGeometry width="100" height="100" relative="1" as="geometry">
            <mxPoint x="2052" y="-564" as="sourcePoint" />
            <mxPoint x="2032" y="-359.0000000000004" as="targetPoint" />
            <Array as="points">
              <mxPoint x="2032" y="-449.0000000000004" />
            </Array>
          </mxGeometry>
        </mxCell>
        <mxCell id="eraaEJyQAx2tB4tVf1Ti-240" value="" style="edgeStyle=elbowEdgeStyle;elbow=horizontal;rounded=0;fontColor=#000000;endArrow=none;endFill=0;strokeWidth=8;strokeColor=#23445D;exitX=0;exitY=0.5;exitDx=0;exitDy=0;" parent="1" source="eraaEJyQAx2tB4tVf1Ti-241" target="eraaEJyQAx2tB4tVf1Ti-237" edge="1">
          <mxGeometry width="100" height="100" relative="1" as="geometry">
            <mxPoint x="2052" y="-564" as="sourcePoint" />
            <mxPoint x="2032" y="-279.00000000000045" as="targetPoint" />
            <Array as="points">
              <mxPoint x="2032" y="-399.0000000000004" />
            </Array>
          </mxGeometry>
        </mxCell>
        <mxCell id="eraaEJyQAx2tB4tVf1Ti-241" value="Testen" style="whiteSpace=wrap;rounded=1;fillColor=#12AAB5;strokeColor=none;shadow=1;fontColor=#FFFFFF;" parent="1" vertex="1">
          <mxGeometry x="2052" y="-599" width="120" height="60" as="geometry" />
        </mxCell>
        <mxCell id="eraaEJyQAx2tB4tVf1Ti-243" value="" style="edgeStyle=elbowEdgeStyle;elbow=vertical;rounded=0;fontColor=#000000;endArrow=none;endFill=0;strokeWidth=8;strokeColor=#23445D;entryX=0.5;entryY=0;entryDx=0;entryDy=0;exitX=0.5;exitY=1;exitDx=0;exitDy=0;" parent="1" source="5" target="eraaEJyQAx2tB4tVf1Ti-241" edge="1">
          <mxGeometry width="100" height="100" relative="1" as="geometry">
            <mxPoint x="1676" y="-629" as="sourcePoint" />
            <mxPoint x="1946" y="-589" as="targetPoint" />
            <Array as="points" />
          </mxGeometry>
        </mxCell>
      </root>
    </mxGraphModel>
  </diagram>
</mxfile>
